<?xml version="1.0" encoding="UTF-8"?>
<svg version="1.1" xmlns="http://www.w3.org/2000/svg" width="355" height="389">
<path d="M0 0 C1.16985323 9.27728444 1.1554903 18.50329492 1.16113281 27.83544922 C1.16576862 29.63023987 1.17079429 31.42502955 1.17617798 33.21981812 C1.18922643 38.07111627 1.19573153 42.92240065 1.20018864 47.77371359 C1.20313029 50.81014405 1.207237 53.84657083 1.21169281 56.88299942 C1.22534488 66.3998646 1.23502396 75.91672125 1.2388947 85.43359554 C1.24337659 96.38978771 1.26094023 107.34585519 1.2898953 118.30200946 C1.31155153 126.79320143 1.32160101 135.28435839 1.32293582 143.77557766 C1.32398058 148.83738143 1.32981872 153.89906763 1.34775543 158.96084213 C1.36430554 163.72321561 1.36635812 168.48538394 1.35761642 173.24777603 C1.35684988 174.98753664 1.36113778 176.72730862 1.37107468 178.46704102 C1.46055091 195.11901678 -0.72853118 210.53591397 -12.5 223.3125 C-22.75014606 232.92781828 -35.59825924 237.57109705 -49.5625 237.3125 C-62.61780906 236.12565372 -74.59557982 230.05639467 -83 220 C-92.7162098 207.66158419 -93.45841997 196.41900761 -92.90511513 181.27031326 C-92.72509858 175.91082168 -92.66637955 170.54921802 -92.58398438 165.1875 C-92.47076881 158.3949015 -92.32297685 151.60784227 -92.05737305 144.81933594 C-89.65607757 121.21638671 -89.65607757 121.21638671 -96.29193115 99.64978027 C-102.33964973 94.21834249 -109.16294331 91.72971173 -117 90 C-118.485 89.505 -118.485 89.505 -120 89 C-120.09388036 103.21347574 -120.16392464 117.42690266 -120.20724869 131.64062595 C-120.22805063 138.24189125 -120.25623268 144.84294704 -120.30175781 151.4440918 C-120.34547976 157.82429478 -120.3691926 164.20429727 -120.37950897 170.5846386 C-120.38685323 173.0088917 -120.40119377 175.43313485 -120.42292023 177.85730171 C-120.5844413 196.64023443 -118.76713138 211.09631977 -110 228 C-109.12021484 229.71509766 -109.12021484 229.71509766 -108.22265625 231.46484375 C-104.14122949 239.13555018 -99.28022273 245.67039249 -93.515625 252.16015625 C-91.92585646 253.95481731 -90.37845327 255.78875318 -88.89453125 257.671875 C-87.18338084 259.77464953 -85.50615316 261.44947391 -83.4375 263.1875 C-80.12969572 266.00616502 -76.93120579 268.91413747 -73.75 271.875 C-65.45891951 279.43113707 -56.42231453 285.93260049 -47 292 C-32.02540716 282.93722037 -18.66384968 272.1220387 -6.59375 259.43359375 C-5 258 -5 258 -3 258 C-2.76539063 257.45214844 -2.53078125 256.90429688 -2.2890625 256.33984375 C-0.66113569 253.38490994 1.40111001 251.09966242 3.625 248.5625 C22.27177169 226.62512154 27.41654087 203.55650043 27.51171875 175.52734375 C27.52861364 173.62348817 27.54677011 171.71964341 27.56611633 169.81581116 C27.61310112 164.86603178 27.64324069 159.91629627 27.66955566 154.96636963 C27.69962493 149.89090304 27.74606276 144.81558709 27.79101562 139.74023438 C27.87646053 129.82690257 27.94406346 119.91353924 28 110 C25.62284804 111.24603894 23.24830942 112.4966793 20.875 113.75 C20.20984375 114.09804687 19.5446875 114.44609375 18.859375 114.8046875 C15.68258366 116.48651821 12.6401059 118.20044522 9.6953125 120.265625 C7 122 7 122 4 122 C2.65976854 119.31953709 2.72009055 117.11669501 2.625 114.125 C2.57601562 113.07570313 2.52703125 112.02640625 2.4765625 110.9453125 C3.18238393 106.97375014 4.77558734 106.31752898 8 104 C9.71116247 102.94197184 11.44693048 101.92287527 13.203125 100.94140625 C14.18410156 100.39033203 15.16507813 99.83925781 16.17578125 99.27148438 C17.19027344 98.70751953 18.20476562 98.14355469 19.25 97.5625 C20.24902344 97.00240234 21.24804688 96.44230469 22.27734375 95.86523438 C24.2456185 94.76274323 26.21627186 93.66448626 28.18945312 92.57080078 C30.02584806 91.54444872 31.85323314 90.50176053 33.66992188 89.44091797 C34.47494141 88.97443848 35.27996094 88.50795898 36.109375 88.02734375 C36.81545898 87.610896 37.52154297 87.19444824 38.24902344 86.76538086 C39.11575684 86.38651733 39.11575684 86.38651733 40 86 C40.66 86.33 41.32 86.66 42 87 C42.07040631 101.34388887 42.1229417 115.68775055 42.15543652 130.03177738 C42.17103872 136.69353658 42.19217684 143.35514785 42.22631836 150.0168457 C42.25910671 156.45539421 42.2768939 162.89383098 42.28463173 169.33245659 C42.29014044 171.77902419 42.3008968 174.22558624 42.31719017 176.67210579 C42.50453717 205.99047113 36.37468544 230.61724291 18 254 C17.35933594 254.84433594 16.71867188 255.68867188 16.05859375 256.55859375 C6.28969666 269.03386461 -5.36287697 280.46123495 -18 290 C-18.57073242 290.43119141 -19.14146484 290.86238281 -19.72949219 291.30664062 C-23.5055995 294.14716322 -27.31794255 296.93148727 -31.16308594 299.67773438 C-32.92835543 300.9484281 -34.67150418 302.24530309 -36.4140625 303.546875 C-37.45304687 304.29453125 -38.49203125 305.0421875 -39.5625 305.8125 C-40.47128906 306.47894531 -41.38007813 307.14539063 -42.31640625 307.83203125 C-45 309 -45 309 -47.98828125 308.421875 C-83.2404609 291.77882261 -116.23783312 255.71962073 -130.31640625 219.625 C-135.98660094 202.55164626 -135.28268231 184.92534099 -135.23046875 167.1640625 C-135.22826048 164.4717912 -135.22877368 161.77952178 -135.2290802 159.08724976 C-135.22814955 153.47106563 -135.2195436 147.8549362 -135.20581055 142.23876953 C-135.19004541 135.76810961 -135.1848144 129.29750921 -135.1855461 122.82683146 C-135.18615842 116.56322008 -135.1810373 110.2996278 -135.17275429 104.03602219 C-135.16958185 101.38634735 -135.16760356 98.7366708 -135.16686058 96.08699417 C-135.16468465 92.38560302 -135.15591477 88.6842854 -135.14526367 84.98291016 C-135.14571686 83.89804321 -135.14617004 82.81317627 -135.14663696 81.69543457 C-135.12156738 75.71620614 -134.77608564 69.92997649 -134 64 C-130.49839245 65.33137702 -127.26194317 66.86968341 -123.9921875 68.6953125 C-123.01886475 69.23841064 -122.04554199 69.78150879 -121.04272461 70.34106445 C-119.99737549 70.92976318 -118.95202637 71.51846191 -117.875 72.125 C-116.78131104 72.73883545 -115.68762207 73.3526709 -114.56079102 73.98510742 C-105.12816112 79.30698797 -95.80611962 84.80628918 -86.5090332 90.36083984 C-79.63361435 94.46380667 -72.72921693 98.49073774 -65.66577148 102.26293945 C-62.20232553 104.15133395 -59.44065935 105.88434732 -57 109 C-56.54589844 112.39160156 -56.54589844 112.39160156 -56.609375 116.390625 C-56.61503479 117.09523865 -56.62069458 117.79985229 -56.62652588 118.52581787 C-56.64884922 120.76791428 -56.69903246 123.00838988 -56.75 125.25 C-56.77007048 126.77341435 -56.7883203 128.29685386 -56.8046875 129.8203125 C-56.84869882 133.5473983 -56.91769628 137.27354087 -57 141 C-58.43671568 141.64757625 -59.87440416 142.29299453 -61.3125 142.9375 C-62.51326172 143.47697266 -62.51326172 143.47697266 -63.73828125 144.02734375 C-66 145 -66 145 -69 146 C-69.66 145.67 -70.32 145.34 -71 145 C-71.00410889 144.13721436 -71.00821777 143.27442871 -71.01245117 142.38549805 C-71.03943555 139.18126468 -71.08852168 135.978348 -71.15258789 132.7746582 C-71.17577078 131.38871037 -71.19016441 130.0025863 -71.19555664 128.61645508 C-71.20484197 126.6229668 -71.24845978 124.62973172 -71.29296875 122.63671875 C-71.3086792 121.43748779 -71.32438965 120.23825684 -71.34057617 119.00268555 C-71.70854198 115.81574768 -71.70854198 115.81574768 -74.41918945 114.08520508 C-76.84065891 112.87079452 -76.84065891 112.87079452 -79 113 C-79 126.86 -79 140.72 -79 155 C-77.35 154.01 -75.7 153.02 -74 152 C-71.63281605 150.77078203 -69.26314292 149.56152996 -66.875 148.375 C-66.25496094 148.06304687 -65.63492188 147.75109375 -64.99609375 147.4296875 C-56.05393569 142.96822369 -45.81881469 141.89596828 -36 144 C-36.15082031 143.0821875 -36.30164063 142.164375 -36.45703125 141.21875 C-36.84479735 137.16211999 -36.91646625 133.98277389 -36 130 C-32.1550177 126.26843901 -27.80015293 124.22664436 -23 122 C-21.59459868 121.18290621 -20.19600167 120.35364997 -18.8125 119.5 C-16 118 -16 118 -14 118 C-14 86.98 -14 55.96 -14 24 C-32.89003009 34.52544603 -32.89003009 34.52544603 -51.625 45.3125 C-52.60154541 45.88589111 -53.57809082 46.45928223 -54.58422852 47.05004883 C-56.50393652 48.17836636 -58.4230025 49.30777721 -60.34130859 50.43847656 C-62.82129899 51.89504392 -65.30941053 53.3364514 -67.80078125 54.7734375 C-69.17990879 55.57774568 -70.55883279 56.38240303 -71.9375 57.1875 C-72.55254395 57.5378833 -73.16758789 57.8882666 -73.80126953 58.24926758 C-77.33059046 60.29969429 -77.33059046 60.29969429 -79 64 C-79.14986411 65.9906444 -79.24828038 67.98535391 -79.31640625 69.98046875 C-79.37924805 71.72553711 -79.37924805 71.72553711 -79.44335938 73.50585938 C-79.48267578 74.72080078 -79.52199219 75.93574219 -79.5625 77.1875 C-79.62727539 79.02731445 -79.62727539 79.02731445 -79.69335938 80.90429688 C-79.7995309 83.93608381 -79.90157952 86.96795315 -80 90 C-85.50685188 89.09512671 -89.56992168 87.56945046 -93 83 C-94.06179396 78.66571614 -94.1953161 74.51194721 -94.09790039 70.05957031 C-94.06250389 68.00022629 -94.11790044 65.95682724 -94.18164062 63.8984375 C-94.13002267 54.38196377 -94.13002267 54.38196377 -91.32788086 50.95507812 C-88.96615238 49.33864159 -86.60752167 48.17736072 -84 47 C-82.1588136 45.95942368 -80.32441828 44.90676264 -78.49609375 43.84375 C-76.47821023 42.72618632 -74.45859832 41.61173921 -72.4375 40.5 C-62.93492046 35.22609292 -53.50729483 29.84268718 -44.13305664 24.34423828 C-38.74274098 21.18328084 -33.34388969 18.03879208 -27.92578125 14.92578125 C-27.3354158 14.58638016 -26.74505035 14.24697906 -26.13679504 13.89729309 C-23.27633333 12.25325211 -20.41458996 10.61153657 -17.55102539 8.97290039 C-11.38525906 5.45162923 -11.38525906 5.45162923 -5.4453125 1.5703125 C-3 0 -3 0 0 0 Z M-20.703125 136.265625 C-23.24452517 139.66436499 -22.84990729 143.71566649 -22.9921875 147.80859375 C-22.00555778 152.20622616 -22.00555778 152.20622616 -14 156 C-14 148.74 -14 141.48 -14 134 C-16.63791976 134 -18.53628756 134.78531032 -20.703125 136.265625 Z M-69 166 C-69.54398438 166.50273437 -70.08796875 167.00546875 -70.6484375 167.5234375 C-76.3649741 173.47211772 -80.14630879 181.74257657 -80.625 190 C-80.09783509 199.10823811 -75.38188487 208.54608483 -69 215 C-60.13639832 222.25940321 -51.32556621 224.07862535 -40 223 C-30.01024779 220.53062305 -22.75828945 214.87311669 -17.2265625 206.34375 C-12.7831465 197.85314617 -12.77641371 187.97842255 -14.9375 178.75 C-17.74292304 170.71749157 -24.6360195 164.01790553 -31.96484375 159.89453125 C-44.68504124 154.30350395 -58.86755176 156.58173313 -69 166 Z " fill="#FCFDFD" transform="translate(223,31)"/>
<path d="M0 0 C0.66 0.33 1.32 0.66 2 1 C1 4 1 4 -1.4375 5.3125 C-2.613125 5.869375 -3.78875 6.42625 -5 7 C-7.53039284 8.50368392 -10.03449113 10.04511061 -12.53515625 11.59765625 C-14.96964779 12.98273147 -17.38482373 14.00773244 -20 15 C-20.99 15.495 -20.99 15.495 -22 16 C-21.78881836 14.19067383 -21.78881836 14.19067383 -21 12 C-18.99047852 10.4284668 -18.99047852 10.4284668 -16.37890625 8.94921875 C-15.44369141 8.41619141 -14.50847656 7.88316406 -13.54492188 7.33398438 C-12.56072266 6.79064453 -11.57652344 6.24730469 -10.5625 5.6875 C-9.09200195 4.84348633 -9.09200195 4.84348633 -7.59179688 3.98242188 C-2.2020668 0.95185789 -2.2020668 0.95185789 0 0 Z " fill="#F2F4FA" transform="translate(252,123)"/>
<path d="M0 0 C0.66 0.33 1.32 0.66 2 1 C-1.86993394 5.35367568 -5.73429681 7.60269179 -11 10 C-13.94354523 11.41443082 -16.42700767 12.97836317 -19 15 C-19.66 14.01 -20.32 13.02 -21 12 C-17.54914225 9.96618904 -14.08820304 7.95020566 -10.625 5.9375 C-9.64015625 5.35677734 -8.6553125 4.77605469 -7.640625 4.17773438 C-6.69960937 3.63310547 -5.75859375 3.08847656 -4.7890625 2.52734375 C-3.91975098 2.01937256 -3.05043945 1.51140137 -2.15478516 0.98803711 C-1.44370605 0.66198486 -0.73262695 0.33593262 0 0 Z " fill="#F3F4F9" transform="translate(202,42)"/>
<path d="M0 0 C0.66 0.66 1.32 1.32 2 2 C0.27501468 4.23251165 -1.4547874 6.46099768 -3.1875 8.6875 C-3.67025391 9.31333984 -4.15300781 9.93917969 -4.65039062 10.58398438 C-7.56010836 14.31389101 -10.48451475 17.82452714 -14 21 C-14.66 21 -15.32 21 -16 21 C-16 20.34 -16 19.68 -16 19 C-15.34 19 -14.68 19 -14 19 C-13.7525 18.443125 -13.505 17.88625 -13.25 17.3125 C-11.77075182 14.57589087 -10.06532561 12.32349131 -8 10 C-7.34 10 -6.68 10 -6 10 C-5.7525 9.05125 -5.505 8.1025 -5.25 7.125 C-4 4 -4 4 -1.875 2.625 C-1.25625 2.41875 -0.6375 2.2125 0 2 C0 1.34 0 0.68 0 0 Z " fill="#F3F5FC" transform="translate(242,279)"/>
<path d="M0 0 C-0.33 0.99 -0.66 1.98 -1 3 C-1.66 3 -2.32 3 -3 3 C-2.97679687 3.91523438 -2.95359375 4.83046875 -2.9296875 5.7734375 C-2.91164062 6.96195313 -2.89359375 8.15046875 -2.875 9.375 C-2.85179687 10.55835938 -2.82859375 11.74171875 -2.8046875 12.9609375 C-3 16 -3 16 -5 18 C-6.93740653 16.06259347 -6.2625055 12.69840128 -6.3125 10.125 C-6.34988281 8.86945313 -6.38726562 7.61390625 -6.42578125 6.3203125 C-6 3 -6 3 -4.10546875 1.0546875 C-2 0 -2 0 0 0 Z M-8 19 C-6 20 -6 20 -6 20 Z " fill="#F2F3FB" transform="translate(193,158)"/>
<path d="M0 0 C0.66 0 1.32 0 2 0 C1.62625268 7.59952888 -0.57589003 13.2402257 -4 20 C-4.66 19.34 -5.32 18.68 -6 18 C-5.60167969 17.05640625 -5.60167969 17.05640625 -5.1953125 16.09375 C-2.9988271 10.77088028 -1.24911725 5.62102764 0 0 Z " fill="#F0F3F9" transform="translate(259,243)"/>
<path d="M0 0 C0 0.99 0 1.98 0 3 C-0.639375 3.2475 -1.27875 3.495 -1.9375 3.75 C-4.18729876 4.7925291 -4.18729876 4.7925291 -4.5625 7 C-4.706875 7.66 -4.85125 8.32 -5 9 C-8 11 -8 11 -10.1875 10.625 C-10.785625 10.41875 -11.38375 10.2125 -12 10 C-10.56877218 8.51476358 -9.12979111 7.03699538 -7.6875 5.5625 C-6.88699219 4.73878906 -6.08648437 3.91507812 -5.26171875 3.06640625 C-3 1 -3 1 0 0 Z " fill="#F3F6FA" transform="translate(218,291)"/>
<path d="M0 0 C2 2 2 2 2.22705078 3.97119141 C2.21657715 4.75671387 2.20610352 5.54223633 2.1953125 6.3515625 C2.18886719 7.20234375 2.18242187 8.053125 2.17578125 8.9296875 C2.15902344 9.81914062 2.14226562 10.70859375 2.125 11.625 C2.11597656 12.5221875 2.10695312 13.419375 2.09765625 14.34375 C2.0740497 16.56276586 2.0411231 18.78125077 2 21 C1.34 21 0.68 21 0 21 C-1.25818438 13.87028851 -0.71148265 7.18050184 0 0 Z " fill="#F3F3FA" transform="translate(210,164)"/>
<path d="M0 0 C-0.33 0.99 -0.66 1.98 -1 3 C-2.6476038 3.71247732 -4.31763529 4.37400383 -6 5 C-7.34275169 5.98731742 -8.67732273 6.98594743 -10 8 C-10.99 8.33 -11.98 8.66 -13 9 C-13.33 8.01 -13.66 7.02 -14 6 C-12.42356682 4.98915735 -10.8385483 3.99169489 -9.25 3 C-8.36828125 2.443125 -7.4865625 1.88625 -6.578125 1.3125 C-4 0 -4 0 0 0 Z " fill="#F1F3F9" transform="translate(207,151)"/>
<path d="M0 0 C3.12517464 1.56258732 3.37725789 4.16953924 4.5625 7.375 C4.99691406 8.53773438 5.43132812 9.70046875 5.87890625 10.8984375 C6.61087004 12.92345231 7.31908474 14.95725421 8 17 C7.34 17.33 6.68 17.66 6 18 C2.63438409 11.9394075 0.38669459 6.96050253 0 0 Z " fill="#E8ECF4" transform="translate(131,229)"/>
<path d="M0 0 C0.66 0.33 1.32 0.66 2 1 C-1.25559127 4.62765884 -3.16428704 6.3283732 -8 7 C-8.33 7.66 -8.66 8.32 -9 9 C-9.99 9.33 -10.98 9.66 -12 10 C-11.83984375 8.20703125 -11.83984375 8.20703125 -11 6 C-8.56640625 4.26171875 -8.56640625 4.26171875 -5.5625 2.6875 C-4.57378906 2.15511719 -3.58507812 1.62273437 -2.56640625 1.07421875 C-1.71949219 0.71972656 -0.87257812 0.36523438 0 0 Z " fill="#F5F5FB" transform="translate(155,69)"/>
<path d="M0 0 C-1.38866323 0.9893091 -2.78629851 1.96603078 -4.1875 2.9375 C-4.96480469 3.48277344 -5.74210938 4.02804687 -6.54296875 4.58984375 C-9.07950299 6.0456289 -11.1218182 6.59613435 -14 7 C-14.33 6.34 -14.66 5.68 -15 5 C-14.01 5 -13.02 5 -12 5 C-11.67 4.34 -11.34 3.68 -11 3 C-4.23469557 -1.46765387 -4.23469557 -1.46765387 0 0 Z " fill="#F3F5FC" transform="translate(207,257)"/>
<path d="M0 0 C4.84688192 0.78175515 9.3766367 2.39844278 14 4 C14 4.99 14 5.98 14 7 C7.69280693 6.07934219 4.08078632 5.0022542 0 0 Z " fill="#F1F3F9" transform="translate(156,249)"/>
<path d="M0 0 C0.66 0.66 1.32 1.32 2 2 C-1.21067213 4.75200468 -4.01077965 6.59838204 -8 8 C-8.99 8.495 -8.99 8.495 -10 9 C-9.78515625 7.171875 -9.78515625 7.171875 -9 5 C-6.93359375 3.515625 -6.93359375 3.515625 -4.4375 2.25 C-3.61121094 1.82203125 -2.78492188 1.3940625 -1.93359375 0.953125 C-1.29550781 0.63859375 -0.65742188 0.3240625 0 0 Z " fill="#ECEDF4" transform="translate(240,130)"/>
<path d="M0 0 C0.33 0 0.66 0 1 0 C1.5497272 5.63470383 -0.04952165 8.38987758 -3 13 C-3.66 12.34 -4.32 11.68 -5 11 C-5 10.34 -5 9.68 -5 9 C-4.34 9 -3.68 9 -3 9 C-2.87625 7.88625 -2.7525 6.7725 -2.625 5.625 C-2 2 -2 2 0 0 Z " fill="#F4F4FB" transform="translate(219,234)"/>
<path d="M0 0 C0 3 0 3 -1.42578125 4.640625 C-2.04839844 5.17171875 -2.67101562 5.7028125 -3.3125 6.25 C-4.23482422 7.06210938 -4.23482422 7.06210938 -5.17578125 7.890625 C-5.77777344 8.25671875 -6.37976563 8.6228125 -7 9 C-7.99 8.67 -8.98 8.34 -10 8 C-6.88983545 4.71211176 -3.98381075 2.16264012 0 0 Z " fill="#F3F5FB" transform="translate(160,190)"/>
<path d="M0 0 C0.66 0.33 1.32 0.66 2 1 C0.625 3 0.625 3 -1 5 C-1.66 5 -2.32 5 -3 5 C-3 5.66 -3 6.32 -3 7 C-4.98 7.99 -4.98 7.99 -7 9 C-7 7.68 -7 6.36 -7 5 C-5.46875 3.515625 -5.46875 3.515625 -3.5 2.25 C-2.8503125 1.82203125 -2.200625 1.3940625 -1.53125 0.953125 C-1.0259375 0.63859375 -0.520625 0.3240625 0 0 Z " fill="#F3F5F9" transform="translate(194,311)"/>
<path d="M0 0 C3.21496708 1.07165569 4.08462512 1.88376774 6.25 4.375 C6.79140625 4.98085938 7.3328125 5.58671875 7.890625 6.2109375 C8.25671875 6.80132812 8.6228125 7.39171875 9 8 C8.67 8.99 8.34 9.98 8 11 C6.65772182 9.73861805 5.32641323 8.46555441 4 7.1875 C3.2575 6.47980469 2.515 5.77210938 1.75 5.04296875 C0 3 0 3 0 0 Z " fill="#F2F3FB" transform="translate(126,298)"/>
<path d="M0 0 C3.44428265 1.44781793 5.36130962 3.27694609 7.75 6.125 C8.36359375 6.84945313 8.9771875 7.57390625 9.609375 8.3203125 C10.29773438 9.15175781 10.29773438 9.15175781 11 10 C10.01 10.33 9.02 10.66 8 11 C8 10.34 8 9.68 8 9 C6.68 8.34 5.36 7.68 4 7 C4 6.34 4 5.68 4 5 C3.34 4.67 2.68 4.34 2 4 C0.875 1.9375 0.875 1.9375 0 0 Z " fill="#F2F4FA" transform="translate(126,282)"/>
<path d="M0 0 C0.66 0 1.32 0 2 0 C5.22265625 5.17578125 5.22265625 5.17578125 6 7 C5.67 7.99 5.34 8.98 5 10 C1.90640976 7.46888071 1.07025668 4.7870621 0 1 C0 0.67 0 0.34 0 0 Z " fill="#F3F5F9" transform="translate(109,256)"/>
<path d="M0 0 C0.66 0 1.32 0 2 0 C1.46930939 3.82097239 0.50298434 6.06171403 -2 9 C-2.33 8.34 -2.66 7.68 -3 7 C-2.06421005 4.64018187 -1.06652192 2.30368736 0 0 Z " fill="#E7EAF3" transform="translate(256,254)"/>
<path d="M0 0 C4.75 1.875 4.75 1.875 7 3 C7 3.99 7 4.98 7 6 C2.32307692 4.52307692 2.32307692 4.52307692 0.6875 1.875 C0.460625 1.25625 0.23375 0.6375 0 0 Z " fill="#F2F3FA" transform="translate(146,255)"/>
<path d="M0 0 C2.8670615 2.8670615 4 4.91591468 4 9 C3.01 8.67 2.02 8.34 1 8 C0.67 5.36 0.34 2.72 0 0 Z " fill="#F2F4FB" transform="translate(92,244)"/>
<path d="M0 0 C-0.33 1.32 -0.66 2.64 -1 4 C-3.31 4.66 -5.62 5.32 -8 6 C-6.72879117 2.18637351 -4.19078006 0 0 0 Z " fill="#F4F5FB" transform="translate(181,55)"/>
<path d="M0 0 C0.33 0.66 0.66 1.32 1 2 C1.66 2 2.32 2 3 2 C3.66 3.65 4.32 5.3 5 7 C3.125 6.8125 3.125 6.8125 1 6 C-0.25 3.4375 -0.25 3.4375 -1 1 C-0.67 0.67 -0.34 0.34 0 0 Z " fill="#F3F5FB" transform="translate(109,277)"/>
<path d="M0 0 C-1 3 -1 3 -4 5 C-6.1875 4.625 -6.1875 4.625 -8 4 C-2.25 0 -2.25 0 0 0 Z " fill="#F1F4FA" transform="translate(175,72)"/>
</svg>
